<svg height="512" viewBox="0 0 512 512" width="512" xmlns="http://www.w3.org/2000/svg">
    <g>
        <g>
            <g>
                <path d="m496 68v268h-480v-268a19.994 19.994 0 0 1 20-20h440a19.994 19.994 0 0 1 20 20z"
                    fill="#006df0" />
                <path d="m496 336v28a19.994 19.994 0 0 1 -20 20h-440a19.994 19.994 0 0 1 -20-20v-28z" fill="#e0e0e2" />
                <path d="m328 440h-144l8-56h128z" fill="#787680" />
                <path d="m128 440h256v24h-256z" fill="#e0e0e2" />
            </g>
            <g fill="#ffda44">
                <circle cx="256" cy="176" r="24" />
                <circle cx="160" cy="288" r="24" />
                <circle cx="448" cy="160" r="24" />
                <circle cx="352" cy="96" r="24" />
                <circle cx="64" cy="160" r="24" />
            </g>
        </g>
        <g>
            <path
                d="m476 40h-440a28.031 28.031 0 0 0 -28 28v296a28.031 28.031 0 0 0 28 28h146.78l-5.72 40h-49.06a8 8 0 0 0 -8 8v24a8 8 0 0 0 8 8h256a8 8 0 0 0 8-8v-24a8 8 0 0 0 -8-8h-49.06l-5.72-40h146.78a28.031 28.031 0 0 0 28-28v-296a28.031 28.031 0 0 0 -28-28zm-100 408v8h-240v-8zm-182.78-16 5.72-40h114.12l5.72 40zm294.78-68a12.01 12.01 0 0 1 -12 12h-440a12.01 12.01 0 0 1 -12-12v-20h464zm0-36h-464v-260a12.01 12.01 0 0 1 12-12h440a12.01 12.01 0 0 1 12 12z" />
            <path
                d="m448 128a31.784 31.784 0 0 0 -18.07 5.61l-47.66-27.24a32 32 0 1 0 -60.41.36l-49.06 42.05a31.981 31.981 0 0 0 -44.1 43.89l-57.95 65.19a31.97 31.97 0 0 0 -26.23 2.14l-61.06-74.62a31.978 31.978 0 1 0 -19.46 6.62 31.127 31.127 0 0 0 4-.26l64.88 79.3a32 32 0 1 0 51.2-4.08l56.12-63.15a31.977 31.977 0 0 0 43.69-43.47l47.02-40.3a31.924 31.924 0 0 0 42.52-.3l45.83 26.2a32 32 0 1 0 28.74-17.94zm-384 48a16 16 0 1 1 16-16 16.021 16.021 0 0 1 -16 16zm96 128a16 16 0 1 1 16-16 16.021 16.021 0 0 1 -16 16zm96-112a16 16 0 1 1 16-16 16.021 16.021 0 0 1 -16 16zm96-80a16 16 0 1 1 16-16 16.021 16.021 0 0 1 -16 16zm96 64a16 16 0 1 1 16-16 16.021 16.021 0 0 1 -16 16z" />
            <path d="m280 352h-48a8 8 0 0 0 0 16h48a8 8 0 0 0 0-16z" />
        </g>
    </g>
</svg>