<?xml version="1.0" standalone="no"?>
<!DOCTYPE svg PUBLIC "-//W3C//DTD SVG 20010904//EN"
 "http://www.w3.org/TR/2001/REC-SVG-20010904/DTD/svg10.dtd">
<svg version="1.0" xmlns="http://www.w3.org/2000/svg"
 width="191.000000pt" height="122.000000pt" viewBox="0 0 191.000000 122.000000"
 preserveAspectRatio="xMidYMid meet">

<g transform="translate(0.000000,122.000000) scale(0.100000,-0.100000)"
fill="#000000" stroke="none">
<path d="M1188 1133 c6 -2 18 -2 25 0 6 3 1 5 -13 5 -14 0 -19 -2 -12 -5z"/>
<path d="M1787 783 l6 -53 -181 0 c-110 0 -183 4 -187 10 -3 6 -12 10 -18 10
-7 0 -6 -4 3 -10 13 -8 13 -10 -1 -10 -9 0 -23 -7 -30 -17 -13 -15 -12 -15 8
-5 14 8 88 12 217 12 l196 0 -1 38 c0 20 -4 46 -9 57 -5 13 -6 0 -3 -32z"/>
<path d="M240 764 c-25 -25 -38 -42 -30 -39 14 7 87 85 78 85 -2 0 -24 -21
-48 -46z"/>
<path d="M1210 770 c-6 -11 -8 -20 -6 -20 3 0 10 9 16 20 6 11 8 20 6 20 -3 0
-10 -9 -16 -20z"/>
<path d="M819 748 c-15 -15 -25 -29 -23 -30 2 -2 -7 -10 -19 -17 -20 -13 -21
-13 -8 2 8 10 9 17 3 17 -6 0 -17 -9 -25 -20 -12 -18 -15 -18 -20 -5 -5 10
-20 15 -52 15 -26 0 -44 4 -40 9 3 5 1 12 -4 15 -5 3 -7 -7 -6 -23 2 -23 -1
-28 -14 -24 -9 4 -13 2 -9 -2 5 -5 0 -14 -10 -21 -10 -7 -37 -40 -61 -73 l-42
-61 54 0 c50 0 75 11 75 33 0 5 4 12 8 15 4 4 5 2 2 -3 -8 -13 89 -12 103 2 6
6 0 8 -21 5 -42 -6 -37 8 15 41 25 16 42 34 38 39 -3 7 -1 8 6 4 17 -11 41 12
41 39 0 14 12 33 31 48 17 13 25 23 17 23 -7 0 -25 -13 -39 -28z"/>
<path d="M1016 718 c-8 -18 -16 -68 -19 -111 l-4 -78 36 3 c32 3 41 11 93 88
79 116 80 117 63 117 -8 0 -11 -5 -8 -10 4 -6 -3 -8 -16 -4 -19 4 -20 3 -10
-9 9 -11 9 -18 1 -26 -9 -9 -17 -7 -33 8 -12 10 -23 18 -25 17 -2 -2 -18 -3
-35 -3 -26 0 -31 3 -26 20 8 30 0 24 -17 -12z m18 -26 c3 -5 -1 -9 -9 -9 -8 0
-12 4 -9 9 3 4 7 8 9 8 2 0 6 -4 9 -8z m80 -53 c-3 -5 -10 -7 -15 -3 -5 3 -7
10 -3 15 3 5 10 7 15 3 5 -3 7 -10 3 -15z"/>
<path d="M245 719 c-4 -5 -11 -7 -16 -4 -5 4 -9 2 -9 -3 0 -6 -7 -9 -16 -8
-10 0 -32 -21 -52 -49 l-36 -50 40 36 c21 20 59 45 84 56 34 14 40 21 28 26
-10 3 -20 2 -23 -4z m-35 -23 c0 -2 -7 -7 -16 -10 -8 -3 -12 -2 -9 4 6 10 25
14 25 6z"/>
<path d="M290 723 c0 -5 64 -7 141 -5 125 3 141 1 136 -12 -4 -11 -1 -16 12
-16 30 0 32 12 5 27 -28 14 -294 20 -294 6z"/>
<path d="M1125 700 c3 -5 11 -10 16 -10 6 0 7 5 4 10 -3 6 -11 10 -16 10 -6 0
-7 -4 -4 -10z"/>
<path d="M1658 622 c-107 -2 -119 -5 -129 -23 -18 -35 -81 -99 -111 -115 -28
-15 -38 -34 -15 -30 6 1 23 9 37 19 32 22 141 23 175 1 22 -14 24 -14 35 6 6
11 15 18 21 15 5 -4 9 1 9 9 0 9 5 16 10 16 38 0 -111 -154 -220 -227 -106
-71 -204 -118 -340 -164 -371 -124 -744 -98 -938 64 -46 38 -45 37 5 -11 194
-186 670 -194 1074 -17 202 88 405 255 478 393 18 35 31 64 29 65 -1 1 -56 1
-120 -1z m65 -77 c-3 -9 -8 -14 -10 -11 -3 3 -2 9 2 15 9 16 15 13 8 -4z
m-209 -14 c3 -5 -1 -14 -8 -20 -10 -9 -16 -9 -21 -1 -4 6 -1 9 7 8 7 -2 12 3
11 10 -3 14 3 16 11 3z m121 -41 c-3 -5 -12 -10 -18 -10 -7 0 -6 4 3 10 19 12
23 12 15 0z"/>
<path d="M312 570 c-17 -27 -29 -50 -27 -50 7 0 67 91 63 96 -3 2 -19 -18 -36
-46z"/>
<path d="M1286 570 c-21 -32 -23 -39 -9 -32 32 18 57 52 46 63 -7 7 -19 -3
-37 -31z"/>
<path d="M746 545 c25 -19 40 -19 48 0 4 12 -3 15 -31 15 -35 0 -36 -1 -17
-15z"/>
<path d="M86 528 c-3 -13 -6 -34 -6 -48 0 -19 3 -21 9 -11 8 12 12 12 25 2 12
-10 13 -16 3 -26 -7 -7 -16 -10 -21 -7 -5 3 -6 0 -2 -6 4 -7 2 -12 -3 -12 -6
0 -11 -5 -11 -12 0 -6 13 1 30 17 l30 29 -22 24 c-14 14 -22 33 -20 48 4 30
-4 31 -12 2z"/>
<path d="M579 433 c-13 -15 -12 -15 8 -2 18 11 25 11 35 1 6 -6 16 -12 22 -12
13 0 -26 29 -40 30 -6 0 -18 -7 -25 -17z"/>
<path d="M1035 435 c-16 -8 -24 -14 -17 -15 7 0 22 5 33 11 15 8 25 7 37 -3
15 -12 16 -11 3 5 -16 20 -16 20 -56 2z"/>
<path d="M1320 440 c-8 -5 -10 -10 -5 -10 6 0 17 5 25 10 8 5 11 10 5 10 -5 0
-17 -5 -25 -10z"/>
<path d="M1258 423 c7 -3 16 -2 19 1 4 3 -2 6 -13 5 -11 0 -14 -3 -6 -6z"/>
<path d="M478 413 c7 -3 16 -2 19 1 4 3 -2 6 -13 5 -11 0 -14 -3 -6 -6z"/>
</g>
</svg>
